<?xml version="1.0" encoding="UTF-8"?>
<svg xmlns="http://www.w3.org/2000/svg" xmlns:xlink="http://www.w3.org/1999/xlink" width="42pt" height="40pt" viewBox="0 0 42 40" version="1.1">
<g id="surface1">
<path style=" stroke:none;fill-rule:nonzero;fill:rgb(0%,0%,0%);fill-opacity:1;" d="M 40.078125 9.519531 C 39.621094 7.707031 38.273438 6.277344 36.558594 5.789062 C 33.457031 4.910156 21 4.910156 21 4.910156 C 21 4.910156 8.542969 4.910156 5.441406 5.789062 C 3.726562 6.277344 2.378906 7.707031 1.921875 9.519531 C 1.085938 12.808594 1.085938 19.671875 1.085938 19.671875 C 1.085938 19.671875 1.085938 26.535156 1.921875 29.828125 C 2.378906 31.640625 3.726562 33.007812 5.441406 33.496094 C 8.542969 34.375 21 34.375 21 34.375 C 21 34.375 33.457031 34.375 36.558594 33.496094 C 38.273438 33.007812 39.621094 31.640625 40.078125 29.828125 C 40.914062 26.535156 40.914062 19.671875 40.914062 19.671875 C 40.914062 19.671875 40.914062 12.808594 40.078125 9.519531 Z M 16.925781 25.90625 L 16.925781 13.441406 L 27.335938 19.671875 Z M 16.925781 25.90625 "/>
</g>
</svg>
