<svg width="30" height="29" viewBox="0 0 30 29" fill="none" xmlns="http://www.w3.org/2000/svg">
<path d="M-0.000271082 14.4999C-0.000271082 22.51 6.71343 28.9999 14.9997 28.9999C23.286 28.9999 29.9997 22.51 29.9997 14.4999C29.9997 6.48985 23.286 -5.84722e-05 14.9997 -5.84722e-05C6.71343 -5.84722e-05 -0.000271082 6.48985 -0.000271082 14.4999ZM27.0965 14.4999C27.0965 20.9606 21.6832 26.1935 14.9997 26.1935C8.31623 26.1935 2.90293 20.9606 2.90293 14.4999C2.90293 8.03922 8.31623 2.80637 14.9997 2.80637C21.6832 2.80637 27.0965 8.03922 27.0965 14.4999ZM22.7417 13.3306V15.6693C22.7417 16.0552 22.415 16.3709 22.0159 16.3709L14.9997 16.3709V20.2882C14.9997 20.9139 14.2195 21.2237 13.7598 20.7852L7.77193 14.9969C7.48763 14.7221 7.48763 14.2778 7.77193 14.003L13.7598 8.21467C14.2195 7.7703 14.9997 8.08601 14.9997 8.71164V12.629L22.0159 12.629C22.415 12.629 22.7417 12.9447 22.7417 13.3306Z" fill="white"/>
</svg>
